<svg version="1.1" id="Layer_1" xmlns="http://www.w3.org/2000/svg" xmlns:xlink="http://www.w3.org/1999/xlink" x="0px" y="0px"
	 width="100%" viewBox="0 0 256 256" enable-background="new 0 0 256 256" xml:space="preserve">
<path fill="#FEFEFE" opacity="1.000000" stroke="none" 
	d="
M0.999998,113.000000 
	C1.000000,101.645775 1.000000,90.291542 1.369257,78.771164 
	C2.158447,77.435326 2.624573,76.279869 2.989931,75.093391 
	C4.246309,71.013344 4.647793,66.390869 6.879036,62.950508 
	C11.041594,56.532261 15.973656,50.539875 21.117620,44.851475 
	C26.493238,38.906902 32.550980,33.604584 40.387512,30.925585 
	C43.373455,29.904812 46.369530,28.913704 49.355793,27.893871 
	C54.126396,26.264677 58.885323,24.601006 63.662914,22.992687 
	C68.021011,21.525587 72.521324,20.404829 76.739769,18.614849 
	C85.438614,14.923724 94.184799,11.249526 102.498909,6.797797 
	C105.396286,5.246417 110.622345,6.388946 111.000000,1.000000 
	C122.687561,1.000000 134.375122,1.000000 146.241394,1.302908 
	C151.525757,4.406480 156.535568,7.404499 161.767639,9.944726 
	C165.876633,11.939685 170.292328,13.292950 174.512161,15.072637 
	C178.149216,16.606531 181.630600,18.526365 185.310410,19.937725 
	C189.870941,21.686882 194.557343,23.111355 199.203674,24.632387 
	C203.735245,26.115850 208.441025,27.186918 212.787247,29.086681 
	C218.298386,31.495638 223.669281,34.317993 228.815094,37.433704 
	C231.651947,39.151367 234.202927,41.582172 236.360168,44.133381 
	C241.574127,50.299511 246.502319,56.708607 251.475418,63.074692 
	C251.914261,63.636452 251.821106,64.604584 252.004089,65.377083 
	C252.730850,68.445389 253.569641,71.491982 254.154144,74.586807 
	C254.390411,75.837860 254.278000,77.240013 253.974915,78.488586 
	C253.463669,80.594604 252.672989,82.632690 252.001755,84.699982 
	C251.234634,87.062553 250.570847,89.464867 249.678131,91.778923 
	C248.548569,94.706932 247.195343,97.547760 246.005356,100.453522 
	C241.905396,110.464981 244.967804,119.825737 249.420929,128.630814 
	C253.138138,135.980820 255.579941,143.330994 255.033142,151.606781 
	C254.835953,154.591095 255.042923,157.600250 254.980103,160.596283 
	C254.956528,161.720215 255.099838,163.409836 254.466263,163.864090 
	C251.262695,166.160980 252.261169,169.422058 251.928467,172.457932 
	C251.747620,174.108109 250.927917,175.726318 250.207977,177.271164 
	C248.880310,180.120087 247.245239,182.834534 246.045975,185.732376 
	C244.375610,189.768524 243.280807,194.061783 241.402451,197.987961 
	C239.249207,202.488708 236.493134,206.699707 234.026764,211.052338 
	C231.573959,215.381073 229.769638,220.256622 226.591843,223.957108 
	C220.378464,231.192520 213.725693,238.136902 206.592789,244.454254 
	C203.710861,247.006668 201.862061,251.280182 196.601364,251.462112 
	C194.339783,251.540298 192.196854,255.049561 190.000000,257.000000 
	C154.645767,257.000000 119.291542,257.000000 83.760948,256.690125 
	C82.424995,255.587601 81.252327,254.813339 80.108734,253.998276 
	C78.163574,252.611954 74.799797,251.402634 74.568275,249.761200 
	C73.837883,244.582962 69.476166,242.669769 66.776413,239.320419 
	C65.330276,237.526306 63.307564,236.130463 62.133656,234.197433 
	C59.780037,230.321808 58.590702,225.466461 55.560432,222.329651 
	C48.674202,215.201263 42.889740,207.538086 38.085175,198.829117 
	C32.544041,188.785049 27.028360,178.842728 23.947544,167.708633 
	C23.286703,165.320343 21.438330,163.186615 21.094210,160.797729 
	C19.700222,151.120605 14.150221,143.269226 10.289336,134.663239 
	C7.491788,128.427444 0.596249,123.706779 2.888962,115.428574 
	C3.052332,114.838692 1.665837,113.819550 0.999998,113.000000 
M84.997398,211.005585 
	C84.997398,211.005585 85.016991,211.005142 85.245415,211.517120 
	C85.836983,211.951477 86.428551,212.385849 87.321312,213.433487 
	C88.649376,214.969070 89.977440,216.504669 90.739998,218.507095 
	C88.568924,219.397903 86.397850,220.288712 83.201302,221.600266 
	C90.851395,225.355911 97.496170,228.618027 103.418541,231.982956 
	C101.739182,232.731628 100.059814,233.480286 98.380455,234.228958 
	C98.292534,234.791183 98.204613,235.353424 98.116692,235.915649 
	C107.683434,239.591003 117.229797,243.321472 126.841278,246.875854 
	C128.124634,247.350449 129.899124,247.351715 131.171890,246.860901 
	C139.219971,243.757217 147.160507,240.375381 155.199615,237.247452 
	C159.289474,235.656143 163.422089,233.970947 167.692627,233.093918 
	C174.727051,231.649231 181.146683,229.652420 186.747253,224.607849 
	C200.488739,212.230591 210.859055,197.525894 218.125183,180.680679 
	C223.538727,168.130371 227.585846,155.100693 226.529022,141.144562 
	C226.403122,139.481964 224.890640,137.204193 223.413513,136.516891 
	C220.507599,135.164795 217.174896,134.729935 213.895462,132.995956 
	C213.932755,117.360695 213.970047,101.725433 214.819931,86.005875 
	C217.664932,85.332939 220.511383,84.666008 223.354553,83.985382 
	C226.231140,83.296745 227.897369,81.621605 227.858673,78.509644 
	C227.826141,75.893143 227.852005,73.275925 227.852005,70.657654 
	C222.532349,69.983955 217.780975,69.382217 212.967560,67.964935 
	C213.331924,64.148323 213.696289,60.331715 214.065979,56.459373 
	C210.267059,56.108395 207.435638,56.027523 204.668640,55.563034 
	C178.662323,51.197418 155.314453,40.022167 132.720932,27.067368 
	C129.786911,25.385029 127.917358,25.531874 125.139351,27.150196 
	C106.400688,38.066345 86.862755,47.261044 65.827812,52.837029 
	C58.836948,54.690186 51.601711,55.621490 44.168785,57.032993 
	C44.168785,58.954536 44.069046,60.943096 44.189323,62.918259 
	C44.448151,67.168762 43.115391,69.752945 38.324402,70.163475 
	C35.539131,70.402153 32.845848,71.714348 30.242846,72.503563 
	C30.242846,88.409157 30.242846,103.890900 30.242846,119.364487 
	C34.597069,120.919724 38.855587,122.440773 43.250252,124.800896 
	C43.874424,127.883850 44.498596,130.966797 45.219341,134.871368 
	C46.684113,147.877594 50.631702,160.107437 55.998749,172.035019 
	C62.513851,186.513977 71.643723,198.935852 83.417976,209.602798 
	C83.417976,209.602798 83.467339,209.722488 83.774796,210.131821 
	C84.181152,210.416687 84.587502,210.701538 84.997398,211.005585 
z"/>
<path fill="#000000" opacity="1.000000" stroke="none" 
	d="
M190.468658,257.000000 
	C192.196854,255.049561 194.339783,251.540298 196.601364,251.462112 
	C201.862061,251.280182 203.710861,247.006668 206.592789,244.454254 
	C213.725693,238.136902 220.378464,231.192520 226.591843,223.957108 
	C229.769638,220.256622 231.573959,215.381073 234.026764,211.052338 
	C236.493134,206.699707 239.249207,202.488708 241.402451,197.987961 
	C243.280807,194.061783 244.375610,189.768524 246.045975,185.732376 
	C247.245239,182.834534 248.880310,180.120087 250.207977,177.271164 
	C250.927917,175.726318 251.747620,174.108109 251.928467,172.457932 
	C252.261169,169.422058 251.262695,166.160980 254.466263,163.864090 
	C255.099838,163.409836 254.956528,161.720215 254.980103,160.596283 
	C255.042923,157.600250 254.835953,154.591095 255.033142,151.606781 
	C255.579941,143.330994 253.138138,135.980820 249.420929,128.630814 
	C244.967804,119.825737 241.905396,110.464981 246.005356,100.453522 
	C247.195343,97.547760 248.548569,94.706932 249.678131,91.778923 
	C250.570847,89.464867 251.234634,87.062553 252.001755,84.699982 
	C252.672989,82.632690 253.463669,80.594604 253.974915,78.488586 
	C254.278000,77.240013 254.390411,75.837860 254.154144,74.586807 
	C253.569641,71.491982 252.730850,68.445389 252.004089,65.377083 
	C251.821106,64.604584 251.914261,63.636452 251.475418,63.074692 
	C246.502319,56.708607 241.574127,50.299511 236.360168,44.133381 
	C234.202927,41.582172 231.651947,39.151367 228.815094,37.433704 
	C223.669281,34.317993 218.298386,31.495638 212.787247,29.086681 
	C208.441025,27.186918 203.735245,26.115850 199.203674,24.632387 
	C194.557343,23.111355 189.870941,21.686882 185.310410,19.937725 
	C181.630600,18.526365 178.149216,16.606531 174.512161,15.072637 
	C170.292328,13.292950 165.876633,11.939685 161.767639,9.944726 
	C156.535568,7.404499 151.525757,4.406480 146.710052,1.302908 
	C183.629593,1.000000 220.259171,1.000000 256.944397,1.000000 
	C256.944397,86.209930 256.944397,171.419907 256.944397,257.000000 
	C234.980484,257.000000 212.958908,257.000000 190.468658,257.000000 
z"/>
<path fill="#000000" opacity="1.000000" stroke="none" 
	d="
M0.999998,113.468658 
	C1.665837,113.819550 3.052332,114.838692 2.888962,115.428574 
	C0.596249,123.706779 7.491788,128.427444 10.289336,134.663239 
	C14.150221,143.269226 19.700222,151.120605 21.094210,160.797729 
	C21.438330,163.186615 23.286703,165.320343 23.947544,167.708633 
	C27.028360,178.842728 32.544041,188.785049 38.085175,198.829117 
	C42.889740,207.538086 48.674202,215.201263 55.560432,222.329651 
	C58.590702,225.466461 59.780037,230.321808 62.133656,234.197433 
	C63.307564,236.130463 65.330276,237.526306 66.776413,239.320419 
	C69.476166,242.669769 73.837883,244.582962 74.568275,249.761200 
	C74.799797,251.402634 78.163574,252.611954 80.108734,253.998276 
	C81.252327,254.813339 82.424995,255.587601 83.292290,256.690125 
	C55.719669,257.000000 28.439342,257.000000 1.000000,257.000000 
	C1.000000,209.312561 1.000000,161.624939 0.999998,113.468658 
z"/>
<path fill="#000000" opacity="1.000000" stroke="none" 
	d="
M110.531342,1.000000 
	C110.622345,6.388946 105.396286,5.246417 102.498909,6.797797 
	C94.184799,11.249526 85.438614,14.923724 76.739769,18.614849 
	C72.521324,20.404829 68.021011,21.525587 63.662914,22.992687 
	C58.885323,24.601006 54.126396,26.264677 49.355793,27.893871 
	C46.369530,28.913704 43.373455,29.904812 40.387512,30.925585 
	C32.550980,33.604584 26.493238,38.906902 21.117620,44.851475 
	C15.973656,50.539875 11.041594,56.532261 6.879036,62.950508 
	C4.647793,66.390869 4.246309,71.013344 2.989931,75.093391 
	C2.624573,76.279869 2.158447,77.435326 1.369257,78.302505 
	C1.000000,52.393517 1.000000,26.787029 1.000000,1.000000 
	C37.354027,1.000000 73.708359,1.000000 110.531342,1.000000 
z"/>
<path fill="#36334A" opacity="1.000000" stroke="none" 
	d="
M91.305496,218.040253 
	C89.977440,216.504669 88.649376,214.969070 87.095901,212.833740 
	C86.252663,211.824371 85.634827,211.414764 85.016983,211.005142 
	C85.016991,211.005142 84.997398,211.005585 84.946457,210.672958 
	C84.419456,210.134384 83.943398,209.928436 83.467339,209.722504 
	C83.467339,209.722488 83.417976,209.602798 83.496017,209.247742 
	C82.905182,207.583771 82.388367,206.166504 81.544617,204.982147 
	C68.896301,187.227783 60.979572,167.734940 58.829651,145.880722 
	C58.346867,140.973145 56.756931,135.640274 49.892738,135.365082 
	C48.287754,135.300720 46.711983,134.507584 45.122772,134.049759 
	C44.498596,130.966797 43.874424,127.883850 43.465466,124.079742 
	C43.793476,112.721130 44.144703,102.078224 43.901604,91.448914 
	C43.804501,87.203140 45.329041,85.714340 49.242649,84.896736 
	C57.758366,83.117699 57.851730,82.926552 57.955990,74.685371 
	C57.999123,71.275864 59.172661,70.030045 62.628967,69.911537 
	C66.564247,69.776588 70.544243,69.192444 74.383179,68.287575 
	C97.865288,62.752640 119.434464,52.546535 140.279877,40.712723 
	C142.592896,39.399632 143.837692,39.793530 145.944641,40.856647 
	C158.095688,46.987698 170.203766,53.255257 182.663177,58.706852 
	C191.858582,62.730274 201.568024,65.578842 210.802338,69.242386 
	C208.972504,69.982063 207.404404,70.739883 205.802124,70.820740 
	C200.860260,71.070114 199.650085,73.568710 199.842590,78.276680 
	C200.229279,87.734283 199.924911,97.218971 199.972687,106.692139 
	C199.993546,110.828499 198.788315,115.862862 200.706345,118.830864 
	C202.405350,121.459923 207.656326,121.803795 211.353394,123.116638 
	C211.753387,123.258675 212.247482,123.135788 212.941025,123.135788 
	C212.941025,112.390060 212.894562,101.764656 212.988739,91.140488 
	C213.003693,89.454178 213.651901,87.773468 214.007339,86.090172 
	C213.970047,101.725433 213.932755,117.360695 213.653961,133.683441 
	C212.956696,135.924835 212.284882,137.450684 212.079010,139.037018 
	C210.281281,152.888657 205.045959,165.574646 198.921021,177.608231 
	C197.657547,174.463455 197.138977,171.111740 195.224213,169.068344 
	C187.368195,160.684555 178.955124,152.825378 171.009415,144.522079 
	C165.866333,139.147537 160.670959,135.436142 152.627350,141.277588 
	C147.335587,135.715668 142.220001,130.338913 137.581833,125.463936 
	C133.434845,129.659363 129.391098,133.750366 124.936455,138.257065 
	C129.984589,143.117325 135.370377,148.302704 140.687698,153.422150 
	C136.792786,160.636505 137.096313,163.198349 142.545441,168.687027 
	C151.700684,177.908768 160.959824,187.028015 170.059143,196.304276 
	C173.754242,200.071243 177.742279,202.047348 182.986176,200.314163 
	C180.696640,203.253586 178.504868,205.935013 176.105820,208.416016 
	C170.497375,214.216125 164.256317,218.964218 155.783432,219.553513 
	C149.357697,220.000443 143.915955,222.874588 138.236237,225.687149 
	C127.815941,230.847183 117.264435,236.829407 104.980431,231.683853 
	C100.511398,226.961121 95.908447,222.500687 91.305496,218.040253 
M76.559181,140.940842 
	C81.856674,146.237350 87.077629,151.613403 92.474182,156.806976 
	C97.416321,161.563232 101.925323,161.505936 106.889931,156.926788 
	C114.103943,150.272903 114.424393,148.534164 110.614822,139.860550 
	C120.570366,129.837372 130.265396,120.076485 139.980057,110.295830 
	C146.467361,115.649742 151.563980,113.272903 156.813858,107.355743 
	C161.162064,102.454865 161.680649,97.496147 157.441376,93.148849 
	C146.517944,81.947037 135.399017,70.933754 124.243271,59.962017 
	C121.461212,57.225842 117.681992,55.709229 114.223892,58.070267 
	C106.456245,63.373680 100.661209,68.500053 106.988190,77.538872 
	C97.089165,87.488434 87.286072,97.341576 77.421722,107.256294 
	C70.287262,102.663048 66.293129,103.562302 59.728733,111.549896 
	C55.569969,116.610329 56.242191,120.581917 62.297756,126.657135 
	C66.881172,131.255417 71.471947,135.846375 76.559181,140.940842 
z"/>
<path fill="#05354B" opacity="1.000000" stroke="none" 
	d="
M211.048447,68.950867 
	C201.568024,65.578842 191.858582,62.730274 182.663177,58.706852 
	C170.203766,53.255257 158.095688,46.987698 145.944641,40.856647 
	C143.837692,39.793530 142.592896,39.399632 140.279877,40.712723 
	C119.434464,52.546535 97.865288,62.752640 74.383179,68.287575 
	C70.544243,69.192444 66.564247,69.776588 62.628967,69.911537 
	C59.172661,70.030045 57.999123,71.275864 57.955990,74.685371 
	C57.851730,82.926552 57.758366,83.117699 49.242649,84.896736 
	C45.329041,85.714340 43.804501,87.203140 43.901604,91.448914 
	C44.144703,102.078224 43.793476,112.721130 43.397392,123.660202 
	C38.855587,122.440773 34.597069,120.919724 30.242846,119.364487 
	C30.242846,103.890900 30.242846,88.409157 30.242846,72.503563 
	C32.845848,71.714348 35.539131,70.402153 38.324402,70.163475 
	C43.115391,69.752945 44.448151,67.168762 44.189323,62.918259 
	C44.069046,60.943096 44.168785,58.954536 44.168785,57.032993 
	C51.601711,55.621490 58.836948,54.690186 65.827812,52.837029 
	C86.862755,47.261044 106.400688,38.066345 125.139351,27.150196 
	C127.917358,25.531874 129.786911,25.385029 132.720932,27.067368 
	C155.314453,40.022167 178.662323,51.197418 204.668640,55.563034 
	C207.435638,56.027523 210.267059,56.108395 214.065979,56.459373 
	C213.696289,60.331715 213.331924,64.148323 212.674377,68.440834 
	C211.936935,68.928108 211.492691,68.939491 211.048447,68.950867 
z"/>
<path fill="#370404" opacity="1.000000" stroke="none" 
	d="
M199.023956,178.002838 
	C205.045959,165.574646 210.281281,152.888657 212.079010,139.037018 
	C212.284882,137.450684 212.956696,135.924835 213.715607,134.143280 
	C217.174896,134.729935 220.507599,135.164795 223.413513,136.516891 
	C224.890640,137.204193 226.403122,139.481964 226.529022,141.144562 
	C227.585846,155.100693 223.538727,168.130371 218.125183,180.680679 
	C210.859055,197.525894 200.488739,212.230591 186.747253,224.607849 
	C181.146683,229.652420 174.727051,231.649231 167.692627,233.093918 
	C163.422089,233.970947 159.289474,235.656143 155.199615,237.247452 
	C147.160507,240.375381 139.219971,243.757217 131.171890,246.860901 
	C129.899124,247.351715 128.124634,247.350449 126.841278,246.875854 
	C117.229797,243.321472 107.683434,239.591003 98.116692,235.915649 
	C98.204613,235.353424 98.292534,234.791183 98.380455,234.228958 
	C100.059814,233.480286 101.739182,232.731628 103.951927,231.983795 
	C104.485313,231.984634 104.846504,231.946152 104.846504,231.946152 
	C117.264435,236.829407 127.815941,230.847183 138.236237,225.687149 
	C143.915955,222.874588 149.357697,220.000443 155.783432,219.553513 
	C164.256317,218.964218 170.497375,214.216125 176.105820,208.416016 
	C178.504868,205.935013 180.696640,203.253586 182.988861,200.331665 
	C182.995132,200.000092 182.963943,199.985687 183.222870,199.977692 
	C183.671967,199.697357 183.862122,199.425034 184.275665,198.901398 
	C187.545425,195.595673 190.410324,192.327652 193.686600,189.543777 
	C197.341248,186.438370 199.539825,182.914703 199.023956,178.002838 
z"/>
<path fill="#360202" opacity="1.000000" stroke="none" 
	d="
M210.802338,69.242386 
	C211.492691,68.939491 211.936935,68.928108 212.705383,68.848610 
	C217.780975,69.382217 222.532349,69.983955 227.852005,70.657654 
	C227.852005,73.275925 227.826141,75.893143 227.858673,78.509644 
	C227.897369,81.621605 226.231140,83.296745 223.354553,83.985382 
	C220.511383,84.666008 217.664932,85.332939 214.413635,86.048019 
	C213.651901,87.773468 213.003693,89.454178 212.988739,91.140488 
	C212.894562,101.764656 212.941025,112.390060 212.941025,123.135788 
	C212.247482,123.135788 211.753387,123.258675 211.353394,123.116638 
	C207.656326,121.803795 202.405350,121.459923 200.706345,118.830864 
	C198.788315,115.862862 199.993546,110.828499 199.972687,106.692139 
	C199.924911,97.218971 200.229279,87.734283 199.842590,78.276680 
	C199.650085,73.568710 200.860260,71.070114 205.802124,70.820740 
	C207.404404,70.739883 208.972504,69.982063 210.802338,69.242386 
z"/>
<path fill="#09364D" opacity="1.000000" stroke="none" 
	d="
M45.171055,134.460571 
	C46.711983,134.507584 48.287754,135.300720 49.892738,135.365082 
	C56.756931,135.640274 58.346867,140.973145 58.829651,145.880722 
	C60.979572,167.734940 68.896301,187.227783 81.544617,204.982147 
	C82.388367,206.166504 82.905182,207.583771 83.431374,209.251312 
	C71.643723,198.935852 62.513851,186.513977 55.998749,172.035019 
	C50.631702,160.107437 46.684113,147.877594 45.171055,134.460571 
z"/>
<path fill="#103A4F" opacity="1.000000" stroke="none" 
	d="
M104.980431,231.683853 
	C104.846504,231.946152 104.485313,231.984634 104.313126,231.932373 
	C97.496170,228.618027 90.851395,225.355911 83.201302,221.600266 
	C86.397850,220.288712 88.568924,219.397903 91.022751,218.273682 
	C95.908447,222.500687 100.511398,226.961121 104.980431,231.683853 
z"/>
<path fill="#09364D" opacity="1.000000" stroke="none" 
	d="
M85.131195,211.261139 
	C85.634827,211.414764 86.252663,211.824371 86.945312,212.527100 
	C86.428551,212.385849 85.836983,211.951477 85.131195,211.261139 
z"/>
<path fill="#09364D" opacity="1.000000" stroke="none" 
	d="
M83.621063,209.927155 
	C83.943398,209.928436 84.419456,210.134384 84.944687,210.663361 
	C84.587502,210.701538 84.181152,210.416687 83.621063,209.927155 
z"/>
<path fill="#FEFDFE" opacity="1.000000" stroke="none" 
	d="
M76.309311,140.690704 
	C71.471947,135.846375 66.881172,131.255417 62.297756,126.657135 
	C56.242191,120.581917 55.569969,116.610329 59.728733,111.549896 
	C66.293129,103.562302 70.287262,102.663048 77.421722,107.256294 
	C87.286072,97.341576 97.089165,87.488434 106.988190,77.538872 
	C100.661209,68.500053 106.456245,63.373680 114.223892,58.070267 
	C117.681992,55.709229 121.461212,57.225842 124.243271,59.962017 
	C135.399017,70.933754 146.517944,81.947037 157.441376,93.148849 
	C161.680649,97.496147 161.162064,102.454865 156.813858,107.355743 
	C151.563980,113.272903 146.467361,115.649742 139.980057,110.295830 
	C130.265396,120.076485 120.570366,129.837372 110.614822,139.860550 
	C114.424393,148.534164 114.103943,150.272903 106.889931,156.926788 
	C101.925323,161.505936 97.416321,161.563232 92.474182,156.806976 
	C87.077629,151.613403 81.856674,146.237350 76.309311,140.690704 
z"/>
<path fill="#FCFCFC" opacity="1.000000" stroke="none" 
	d="
M198.921021,177.608231 
	C199.539825,182.914703 197.341248,186.438370 193.686600,189.543777 
	C190.410324,192.327652 187.545425,195.595673 184.008972,198.899841 
	C183.333908,199.428299 183.148926,199.706985 182.963928,199.985687 
	C182.963943,199.985687 182.995132,200.000092 182.992447,199.982605 
	C177.742279,202.047348 173.754242,200.071243 170.059143,196.304276 
	C160.959824,187.028015 151.700684,177.908768 142.545441,168.687027 
	C137.096313,163.198349 136.792786,160.636505 140.687698,153.422150 
	C135.370377,148.302704 129.984589,143.117325 124.936455,138.257065 
	C129.391098,133.750366 133.434845,129.659363 137.581833,125.463936 
	C142.220001,130.338913 147.335587,135.715668 152.627350,141.277588 
	C160.670959,135.436142 165.866333,139.147537 171.009415,144.522079 
	C178.955124,152.825378 187.368195,160.684555 195.224213,169.068344 
	C197.138977,171.111740 197.657547,174.463455 198.921021,177.608231 
z"/>
<path fill="#36334A" opacity="1.000000" stroke="none" 
	d="
M183.222870,199.977692 
	C183.148926,199.706985 183.333908,199.428299 183.785583,199.151154 
	C183.862122,199.425034 183.671967,199.697357 183.222870,199.977692 
z"/>
</svg>